# xmcd CD database file
#
# Track frame offsets:
#	150
#	13264
#	24201
#	43503
#	60757
#	78070
#	90168
#	107338
#	121412
#	136462
#	156220
#	168314
#
# Disc length: 2452 seconds
#
# Revision: 0
# Processed by: cddbd v1.5.2PL0 Copyright (c) Steve Scherf et al.
# Submitted via: CDex 1.51
#
DISCID=7b09920c
DTITLE=get up and dance nr.65 - get up and dance nr.65
DYEAR=2008
DGENRE=Country
TTITLE0=Let's Get Trashed
TTITLE1=Bud Wiser
TTITLE2=She Believes
TTITLE3=My Last Name
TTITLE4=You Were Right
TTITLE5=Git Yer Cowboy On
TTITLE6=Amame
TTITLE7=Double Your Funtasia
TTITLE8=Want My Goodbye Back
TTITLE9=West Coast Swinging
TTITLE10=What I Like About You
TTITLE11=Never Change
EXTD=YEAR: 2008
EXTT0=
EXTT1=
EXTT2=
EXTT3=
EXTT4=
EXTT5=
EXTT6=
EXTT7=
EXTT8=
EXTT9=
EXTT10=
EXTT11=
PLAYORDER=
